<svg xmlns="http://www.w3.org/2000/svg" viewBox="0 0 998.86 1697.51"><defs><radialGradient id="a" cx="-549.06" cy="918.63" r="160.41" gradientTransform="translate(957.65 -11.47)" gradientUnits="userSpaceOnUse"><stop offset="0" stop-color="#e5a691"/><stop offset=".46" stop-color="#efb69c"/><stop offset="1" stop-color="#f8c5a5"/></radialGradient></defs><g data-name="Layer 2"><g data-name="Layer 1"><path fill="#b8645d" d="M947.39,476.47c-45.15,123.07-254.85,327.1-224.73,509.95-193.54,45.13-362-33.85-362-33.85L689.89,619.63Z"/><polygon fill="url(#a)" points="450.4 756.78 368.52 1131 563.01 1119.36 567.8 723.39 450.4 756.78"/><path fill="#4c5971" d="M998.86,1515.7q-35.79,25.8-74,48.38c-4.08,2.47-8.17,4.84-12.35,7.13-3.33,2-6.75,3.89-10.17,5.79q-39.49,22-81.35,40.3c-4,1.71-8.08,3.52-12.17,5.23a963.77,963.77,0,0,1-91.14,33c-4.09,1.23-8.08,2.46-12.17,3.6q-44.62,13.13-90.86,21.77c-4,.76-8.08,1.52-12.16,2.19-29.94,5.22-60.35,9.12-91.24,11.49-4,.29-8.08.58-12.16,1-21,1.33-42.1,2-63.49,2-9.4,0-18.72-.09-28-.47-4.09,0-8.18-.19-12.26-.38q-46.62-1.86-91.91-8.18c-4.08-.47-8.26-1.14-12.35-1.71a919.37,919.37,0,0,1-92-18.53c-4.08-1-8.17-2.09-12.26-3.14a941.57,941.57,0,0,1-91.9-29.55c-4.09-1.52-8.17-3-12.26-4.66Q40.24,1614.21,0,1593.73C2.09,1479.11,8.93,1317.36,30.22,1282a78.39,78.39,0,0,1,10.65-13.87l2.94-3.14,2.95-3c1.14-1.14,2.47-2.37,3.8-3.51,2.95-2.76,6.18-5.51,9.6-8.27l1.9-1.52c1.81-1.52,3.71-3,5.71-4.47,2.37-1.8,4.84-3.71,7.41-5.41,2.37-1.72,4.65-3.33,7.12-5,11.12-7.7,23.48-15.4,36.69-23.1,4.56-2.56,9.22-5.22,14-7.79,9.6-5.42,19.67-10.74,29.94-16,3.9-2,7.7-4,11.59-5.89s7.8-3.9,11.6-5.8c4-2,8-3.89,11.78-5.79,4-1.9,7.89-3.8,11.88-5.7,2.28-1,4.66-2.1,6.84-3.14,3.24-1.62,6.47-3,9.79-4.56,2.38-1.14,4.75-2.19,7.13-3.33,4.66-2.09,9.32-4.18,13.88-6.18,12.25-5.51,24.23-10.74,35.83-15.77,20.24-8.65,39.06-16.45,55.59-23.1a4.85,4.85,0,0,1,1.05-.47.68.68,0,0,1,.38-.1c2.56-1.14,5-2.09,7.31-3l12.08-4.85c.66-.28,1.33-.47,1.9-.76,5.7-2.28,10.92-4.37,15.49-6.17,3-1.24,5.7-2.29,8.17-3.14,5.89-2.47,10.27-4.18,12.55-5.13h.19l52.17-.67,5.42-.09,7-.1h5.71l60.54-.66,12.35-.19,9.88-.1s2.67.38,7.61,1.33c1.33.29,3,.57,4.75,1,2.09.38,4.56.86,7.22,1.43,5.42,1,11.88,2.18,19.2,3.7l5.8,1.14a3.81,3.81,0,0,0,1,.19.33.33,0,0,1,.28.1c14.35,3,31.36,6.56,50.08,10.93,3.14.76,6.37,1.42,9.51,2.28,4,.86,7.89,1.81,11.88,2.85,2.47.57,4.94,1.14,7.51,1.81.38.09.76.19,1,.28,5.61,1.33,11.22,2.85,17,4.28,5.61,1.43,11.12,2.85,16.83,4.47.47.09,1,.28,1.61.38l16.54,4.56c8.26,2.28,16.53,4.75,24.89,7.32,3.9,1,7.8,2.37,11.7,3.51,29.74,9.32,58.83,19.77,84.29,31.08,1.81.86,3.62,1.62,5.33,2.47,2.09.86,4.09,1.81,6,2.76,2.29,1.14,4.47,2.18,6.66,3.23,2.85,1.42,5.6,2.85,8.36,4.37,2.19,1.14,4.28,2.28,6.37,3.52,4.18,2.37,8.27,4.75,12,7.22,2,1.33,3.8,2.57,5.6,3.8,1.62,1.14,3.33,2.38,4.94,3.52a118.64,118.64,0,0,1,13.5,11.69c7.6,7.6,14.63,18.91,21.2,32.88,3.13,6.75,6.17,14.07,9,22C972.72,1327.24,988.59,1428.74,998.86,1515.7Z"/><path fill="#b8645d" d="M188.47,29.53c-195.53,319.72-113,498-42.42,565.3S188.47,29.53,188.47,29.53Z"/><path fill="#f8c5a5" d="M172.76,293.2c-45.47,106.17-26.67,159.33-53.56,266.91s-26.54,201.07,3.69,274.22,84.65,151.78,174.21,165.83S506.23,932.85,581,817.78,678.82,587.84,697.25,502.3,726.83,250,646.71,175.68C574.19,108.41,291.26,16.45,172.76,293.2Z"/><path fill="#fff" d="M279.37,782.87c3.16,4.45,28.52,44.56,28.52,44.56s76.9-8.29,123-87.52C400.35,755.92,328.64,786.74,279.37,782.87Z"/><path fill="#b8645d" d="M389.18,423.93c-.77,4.89-1.95,23.06-1.95,23.06s178.43,11.3,193.09,13.6,23.75,18.75,23.75,18.75-3.79-29-17.43-37.78S412.58,434.28,389.18,423.93Z"/><path fill="#b8645d" d="M331.67,418.25l-8.46,22S178.76,382.57,166.84,384s-27.23,14.08-27.23,14.08,10.85-26.66,26.79-32.5S331.67,418.25,331.67,418.25Z"/><path fill="#614343" d="M378.42,617.46c53.13,40.25,159.51,16.27,173.35,7.8-7.11-74.32-57.06-90.92-92.35-93.32S386.85,563.73,378.42,617.46Z"/><path fill="#de9b88" d="M329.53,506.34c-20,85.29-38.86,130.73-73.1,178.75-12.83,18,24.82,37.27,43.59,45.22-24.53-15.11-32.2-30.08-32.36-37S313,643.7,329.53,506.34Z"/><path fill="#fff" d="M378.42,617.46c53.13,40.25,144.73,22.71,158.57,14.25-3.24-63.08-43.5-85.67-78.78-88.07S386.85,563.73,378.42,617.46Z"/><path fill="#4c5971" d="M503.34,601.61a43.27,43.27,0,1,1-36-49.46A43.27,43.27,0,0,1,503.34,601.61Z"/><path fill="#614343" d="M154.59,540.4l-7.67-18.7s19.27-62.31,75.37-49.7c49.16,11.05,69,60,56.29,119.79C251.51,513.08,154.59,540.4,154.59,540.4Z"/><path fill="#fff" d="M278.58,591.79A148.81,148.81,0,0,1,263,594.51a130.81,130.81,0,0,1-16.87,1c-52.21-.33-87.84-32-91.58-55.06,26.41-68.44,72.84-69.26,99.7-36.92,1.21,1.54,2.43,3,3.58,4.62a19.46,19.46,0,0,1,1.32,1.81c17.48,24.82,21.21,53.08,20.6,70.71-.08,2-.23,4-.4,5.69C279.17,588.38,278.88,590.24,278.58,591.79Z"/><path fill="#4c5971" d="M279.79,580.62a43.28,43.28,0,1,1-24.3-72.95c.78.13,1.61.26,2.38.43a19.46,19.46,0,0,1,1.32,1.81C276.67,534.73,280.4,563,279.79,580.62Z"/><path fill="#b8645d" d="M147.42,371.57c223.33-133.24,532.93-64.64,532.93-64.64s-92,278.62-43.43,387.42c52.68,106,278.81-117,308.09-207.86S815.22,147.88,727.72,84.1s-371-120.77-539.25-54.57C81.83,293.12,147.42,371.57,147.42,371.57Z"/><path fill="#f8c5a5" d="M616.14,721.5c79-99.39,155.76-35.62,130.28,20.44S568.93,881.24,582,811.26C592.35,756.15,616.14,721.5,616.14,721.5Z"/><path fill="#de9b88" d="M710.11,707.42C705.32,704.18,699.22,704,694,705c-10.79,2.05-20.17,7.54-28.79,13.58a162.55,162.55,0,0,0-23.87,20.73,107.76,107.76,0,0,0-18.52,25.79L620,770.62l5.77-2h0c6.89-2.62,14-4.8,21.17-5.37,3.52-.21,7.19.11,9.76,1.93s3.37,5.29,2.72,8.72c-1.41,7-6,13.32-11.25,18.47a44.25,44.25,0,0,1-19.08,11.28,34.62,34.62,0,0,0,11.2-2.81,51,51,0,0,0,10-6.1,42.91,42.91,0,0,0,8.34-8.57,32.18,32.18,0,0,0,5.66-11.26,17,17,0,0,0,0-7.26,11.82,11.82,0,0,0-4.4-6.76c-4.42-3.21-9.12-3.55-13.22-3.31a59.66,59.66,0,0,0-15.8,3.55,167.41,167.41,0,0,1,14.35-18,156.71,156.71,0,0,1,22.81-20.33,109.93,109.93,0,0,1,12.85-8.1,58.09,58.09,0,0,1,13.78-5.78c4.73-1.14,9.79-1.66,14,.58s7,6.94,8.26,12C716.62,716.45,714.94,710.71,710.11,707.42Z"/><g style="mix-blend-mode:multiply" opacity=".1"><path fill="#4c5971" d="M94.85,1635.55c-4.09-1.52-8.17-3-12.26-4.66-.38-99.32,5.7-252.23,36.4-420.17,4.56-2.56,9.22-5.22,14-7.79C100.27,1376.66,94.28,1535.09,94.85,1635.55Z"/><path fill="#4c5971" d="M199,1668.24c-4.08-1-8.17-2.09-12.26-3.14-2.09-104.63,1.81-300.13,46.76-512.35,4.66-2.09,9.32-4.18,13.88-6.18C200.34,1363.45,196.63,1563.79,199,1668.24Z"/><path fill="#4c5971" d="M359.63,1106.37c-59.31,248.53-59.69,481.56-56.27,582.11-4.08-.47-8.26-1.14-12.35-1.71-3.33-102.35-2.47-334.91,56.54-582.68l12.08-4.85c.66-.28,1.33-.47,1.9-.76C360.86,1101.14,360.29,1103.71,359.63,1106.37Z"/><path fill="#4c5971" d="M468.26,1083.18c-1.43,5.7-2.85,11.31-4.09,16.92v.09c-1.52,6.18-2.94,12.17-4.37,18.16-.58,2.47-1.14,4.94-1.62,7.31-56.45,250.15-54.36,480.61-50.65,571.38-4.09,0-8.18-.19-12.26-.38-3.71-91.53-5.42-321,50.08-570.24.57-2.56,1.14-5.13,1.81-7.79,1.43-6.46,2.94-13,4.46-19.48v-.1c1.34-5.32,2.57-10.45,3.9-15.77l7-.1Z"/><path fill="#4c5971" d="M570.61,1085.94c-1.71,6.84-3.33,13.59-4.84,20.43-.95,3.9-1.9,7.7-2.76,11.6-.1.47-.19,1-.29,1.42-57.4,251.85-55.22,484.6-51.51,575.17-4,.29-8.08.58-12.16,1-3.8-90.67-6-323.14,50.94-575.37.85-3.8,1.71-7.6,2.66-11.4,1.9-8.37,3.9-16.73,6-25.19,1.33.29,3,.57,4.75,1C565.48,1084.89,568,1085.37,570.61,1085.94Z"/><path fill="#4c5971" d="M614.61,1680.88c-4,.76-8.08,1.52-12.16,2.19-3.52-98.27-3.71-330.07,54.08-578.79,4,.86,7.89,1.81,11.88,2.85C611.19,1353.09,611.19,1582.42,614.61,1680.88Z"/><path fill="#4c5971" d="M717.64,1655.51c-4.09,1.23-8.08,2.46-12.17,3.6-2.56-103.3.48-307.44,48.37-528.88,3.9,1,7.8,2.37,11.7,3.51C718.59,1351.48,715.26,1552.2,717.64,1655.51Z"/><path fill="#4c5971" d="M821,1617.3c-4,1.71-8.08,3.52-12.17,5.23-1-103.41,4.75-272.67,41.05-457.71,1.81.86,3.62,1.62,5.33,2.47,2.09.86,4.09,1.81,6,2.76C826.17,1350.05,820.19,1514.75,821,1617.3Z"/><path fill="#4c5971" d="M948.77,1262.24a2367.12,2367.12,0,0,0-23.95,301.84c-4.08,2.47-8.17,4.84-12.35,7.13,1-86.39,7.32-202.82,27.28-330.93C942.88,1247,945.92,1254.35,948.77,1262.24Z"/></g><path fill="#4c5971" d="M595.78,1095.77c-2.32,4.46-22.2,9.76-49.68,14.14-3.89.6-8,1.21-12.09,1.74-21.09,3-45.37,5.3-69,6.48-4.15.12-8.22.32-12.29.44-21.49.62-42,.16-58.7-1.8-4.33-.61-8.42-1.22-12.19-1.93-11.39-2.36-19.88-5.7-24.16-10.29,20.94-50.38-19.45-106.06,7.28-97.14a94.7,94.7,0,0,0,17.77,3.31c3.76.46,7.92.83,12.41,1.11,11.83.71,25.77,1,40.42.7,4.15,0,8.39-.17,12.62-.37,27-1,55-4,75.81-9a114.62,114.62,0,0,0,12.52-3.62c1.94-.63,3.71-1.33,5.4-2,40.23-17.21,65.7-26.5,46.51,14.21S603.33,1080.8,595.78,1095.77Z"/><g style="mix-blend-mode:multiply" opacity=".1"><path fill="#4c5971" d="M382.68,1010.72c7,46.3,2.62,84.63-.89,104.12,3.77.71,7.86,1.32,12.19,1.93,3.66-20.06,7.93-58.14,1.11-104.94C390.6,1011.55,386.44,1011.18,382.68,1010.72Z"/><path fill="#4c5971" d="M435.51,1012.53c13.75,47.08,16.81,85.28,17.17,106,4.07-.12,8.14-.32,12.29-.44-.37-21.09-3.34-58.87-16.84-106C443.9,1012.36,439.66,1012.49,435.51,1012.53Z"/><path fill="#4c5971" d="M546.1,1109.91c-3.12-14.81-12.15-62.2-9.64-110.41a114.62,114.62,0,0,1-12.52,3.62c-1.79,47.62,6.68,92.74,10.07,108.53.75,3.31,1.21,5.34,1.31,5.82l11.81-2.86C547.13,1114.53,546.75,1112.82,546.1,1109.91Z"/></g></g></g></svg>