<svg xmlns="http://www.w3.org/2000/svg" viewBox="0 0 1136.66 1669.41"><defs><radialGradient id="a" cx="4470.36" cy="925.2" r="177.31" gradientTransform="matrix(-1.45 0 0 1 7122.34 0)" gradientUnits="userSpaceOnUse"><stop offset="0" stop-color="#e5a691"/><stop offset=".46" stop-color="#efb69c"/><stop offset="1" stop-color="#f8c5a5"/></radialGradient></defs><g data-name="Layer 2"><g data-name="Layer 1"><path fill="#3d3434" d="M0,1428.39A970,970,0,0,0,170.69,1548.9c138.28,76.8,297.47,120.51,466.83,120.51,182.76,0,353.64-50.84,499.14-139.23-6.65-112.43-19.67-257-43.71-289.58a87.31,87.31,0,0,0-12.74-13.59l-3.42-3c-1.14-.85-2.28-1.8-3.52-2.85s-2.94-2.28-4.46-3.42c-3.52-2.66-7.23-5.22-11.22-8l-2.28-1.43c-2.09-1.42-4.37-2.85-6.56-4.27-2.85-1.71-5.7-3.52-8.84-5.23-2.66-1.61-5.32-3.23-8.26-4.85-26.81-15-59.31-30.12-93.81-44.47-4.46-1.91-8.93-3.81-13.49-5.61s-9-3.61-13.5-5.42c-4.66-1.9-9.22-3.7-13.78-5.42-1.14-.47-2.18-1-3.32-1.33l-10.27-4c-2.76-1-5.51-2-8.07-3-3.81-1.43-7.42-2.85-11.22-4.18-15.4-5.7-30.7-11.31-45.43-16.44-3.13-1.14-6.27-2.19-9.32-3.33-3.8-1.33-7.5-2.66-11.21-3.9-.38-.09-.57-.09-1-.19-12.16-4.27-23.95-8.26-35.07-11.88-10-3.42-19.58-6.55-28.51-9.4a4.54,4.54,0,0,0-1.23-.38c-.1-.1-.19-.1-.48-.19-.86-.29-1.81-.57-2.57-.86h-.09c-6.75-2.19-13-4.28-18.92-6.18-23-7.41-39.34-12.45-45-14.35L489.83,1056s-16.72,3-43.62,8.46c-.19,0-.38.1-.57.1-2.1.38-4.37.85-6.56,1.33-.38.09-.76.09-1.23.19-.67.19-1.34.28-2,.47h-.1c-1.61.29-3,.57-4.65,1-15,3-32,6.75-50.47,11-9.41,2.18-19,4.46-28.89,6.84-1.33.28-2.66.57-4,.95-.57.09-.86.19-1.24.28-6.37,1.53-12.83,3.24-19.29,4.85s-12.73,3.14-19.2,4.85a9.67,9.67,0,0,1-1.8.47c-6.18,1.62-12.45,3.33-18.73,5-10.17,2.76-20.33,5.61-30.41,8.65-40.2,11.78-79.64,25-112.62,39.35-5,2.09-9.69,4.18-14.35,6.46-3.23,1.42-6.37,3-9.41,4.56-2.37,1.14-4.84,2.38-7.22,3.71-4.75,2.47-9.32,4.94-13.5,7.6-2.09,1.24-4.18,2.57-6.17,3.9s-3.81,2.37-5.61,3.61a128.4,128.4,0,0,0-15.11,12.07C36.31,1226.25,13.78,1327.75,0,1428.39Z"/><path fill="#fcefe2" d="M431.08,1067.52C470.25,1258.2,629.33,1569.21,687.14,1619c61.07-81.42,87.53-474.26,81.42-515a54.56,54.56,0,0,0-6.35-19.37c-10-3.34-19.54-6.52-28.5-9.37a7,7,0,0,0-1.22-.4,2.28,2.28,0,0,0-.49-.17c-.89-.32-1.79-.57-2.6-.89-15.15,156.32-236.52,70.67-293.59-7.33Z"/><path fill="#625756" d="M687.14,1619c93.63-195.4,39.35-567.21,39.35-567.21s61.15,19.78,76.67,36S831,1236.38,831,1268.94s-60.38,38.68-60.38,38.68,46.81,67.17,49.52,97S727.85,1580.36,687.14,1619Z"/><path fill="url(#a)" d="M651.33,727.78l78.07,346.09s12.68,94.43-105.36,91.27-189.29-89.56-189.29-89.56l44.7-377.77Z"/><path fill="#f8c5a5" d="M289.62,248.47c2.31,84,45.44,241,45.44,241s24.26,74.62,51.12,153.37C411.89,718.48,439.9,798,451.07,819.18c22.72,43.13,159.14,109.08,193.22,125.06s179.65-2.31,202.37-27.34c19.64-21.57,84.43-229.61,87.8-327.91.58-16.08-.48-29.17-3.65-38.12-22.73-63.74-30-143.65-27.73-175.51,1.83-25.51,1.06-104.94-27.54-194.09-16.27-50.64-104.49-141.52-155-158.08-33.12-10.88-30.48,28.69-93.44,20C510,27.23,374.22,64.1,374.22,64.1S287.31,164.33,289.62,248.47Z"/><path fill="#3d3434" d="M210.68,271.1c2.59,21.94,20.79,95.5,39.56,161.06,1.64,5.88,3.27,11.55,4.91,17.23,14.44,49.39,28.31,90.69,34.47,96.09,14.73,12.9,89.53,55.35,96.56,97.33s-7,102.43.19,210.74A453.91,453.91,0,0,0,434,902.75v.09c5.39,4.72,10.78,9.34,16.27,13.87,52.37,42.84,110.52,72.59,164.44,93.19,5.29,2.12,10.59,4.05,15.88,6,75.58,26.86,140.66,36,166.36,38.8,7.61.77,11.75,1.06,11.75,1.06s1.06-.77,2.88-2.31c12-9.82,59.22-49.78,96.66-102.15,3.57-4.91,7-9.92,10.31-15,11.55-17.81,21.56-36.78,28.59-56.22-21.66-79.43-12.52-303.27-12.52-303.27s-20.21,9.92-51.31,21.37c-4.72,1.74-9.63,3.47-14.83,5.3-32.92,11.27-74.71,22.82-117,27.06q-7.21.72-14.44,1.15c-3.85.19-7.61.39-11.36.48-32.16.77-75.67-5.78-119.86-15.11-4.72-1-9.44-1.93-14.15-3.09-41.69-9.14-83.09-20.4-115.53-29.74-4.82-1.45-9.44-2.79-13.77-4-30-9-49.58-15.4-49.58-15.4s-25.32-62-48.62-120.34c-1.83-4.62-3.66-9.25-5.49-13.77-17.52-44.29-32.54-83.28-32.54-87.32,0-6.93,6.36-36.68,21.66-77.21,1.73-4.62,3.66-9.53,5.78-14.54,4.52-11.36,9.82-23.39,15.89-35.81,36.29-75.38,82.5-93.68,129-94.54,6.26-.2,12.42,0,18.58.38h.1c14.44,1,28.49,3,42.46,5.1,47.17,6.93,91.65,12.23,130.83,14.15,9,.39,17.72.58,26.19.68h.1c75.76.39,126-15.5,126.88-63C845,8.07,789.67-3.67,731.9.85,724,1.43,716,2.39,708.12,3.45H708c-40.72,5.78-78.84,16.66-95.4,17.81-20.32,1.35-68.74-5.58-119.57-9.91-12-1.06-24.17-2-36.11-2.7h-.09c-45.35-2.31-87.71-.77-109,12.61-31.67,19.93-79.23,96.57-109.36,161.26v.1c-2.6,5.77-5.2,11.46-7.61,16.94C217.41,231.14,209.13,258.1,210.68,271.1Z"/><g style="mix-blend-mode:screen" opacity=".4"><path fill="#3d3434" d="M690.5,140.83c9,.39,17.72.58,26.19.68h.1c37.73-26.57,55.35-60.27,47.75-93.68-4.33-18.67-16-34.94-32.64-47C724,1.43,716,2.39,708.12,3.45c22,10.4,37.64,27.25,42.26,47.56C757.8,83.07,735.46,116.09,690.5,140.83Z"/><path fill="#3d3434" d="M498.53,121.2c6.26-.2,12.42,0,18.58.38h.1c20.31-26.76,17.9-50.64,13.28-64.6-5.77-17.62-19.25-33.41-37.44-45.63-12-1.06-24.17-2-36.11-2.7,29.46,10.88,52.47,30.13,59.89,52.86C523.37,81.53,517.11,101.84,498.53,121.2Z"/><path fill="#3d3434" d="M230.89,199.56a132,132,0,0,0,37,41.88c17,12.52,42.84,24.65,78.56,24.65h1.44c1.73-4.62,3.66-9.53,5.78-14.54-29.55,1.64-55.45-5.68-77.31-21.76a119.29,119.29,0,0,1-37.83-47.17C235.9,188.39,233.3,194.08,230.89,199.56Z"/><path fill="#3d3434" d="M250.24,432.16c1.64,5.88,3.27,11.55,4.91,17.23,16.27,5.39,35.53,9.73,55.07,9.73A111.87,111.87,0,0,0,340,455.27a84.08,84.08,0,0,0,24.26-10.88c-1.83-4.62-3.66-9.25-5.49-13.77a73,73,0,0,1-22.62,10.69C307,449.49,274.12,441.31,250.24,432.16Z"/><path fill="#3d3434" d="M908.27,951.27c3.57-4.91,7-9.92,10.31-15-16.85-51.41-45.73-168-35.24-338.12-4.72,1.74-9.63,3.47-14.83,5.3C858,786.45,891.91,905.64,908.27,951.27Z"/><path fill="#3d3434" d="M737.1,631.64C735.94,812,776.86,982,797,1054.67c7.61.77,11.75,1.06,11.75,1.06s1.06-.77,2.88-2.31C792,983,750.19,811.77,751.54,630.49Q744.33,631.21,737.1,631.64Z"/><path fill="#3d3434" d="M614.74,1009.9c5.29,2.12,10.59,4.05,15.88,6C615.12,941.55,589.51,785,605.88,617c-4.72-1-9.44-1.93-14.15-3.09C575.45,777.78,598.85,931.25,614.74,1009.9Z"/><path fill="#3d3434" d="M434,902.75v.09c5.39,4.72,10.78,9.34,16.27,13.87-8.38-63.26-9.63-195.92,25.9-332.53-4.82-1.45-9.44-2.79-13.77-4C430.56,702.79,426.81,829.48,434,902.75Z"/></g><path fill="#fff" d="M510.76,498.59a356.3,356.3,0,0,0,47.37,6.35,314.52,314.52,0,0,0,34.75.68c19.93-.68,41-3.47,59.89-10.21,0,0-12-47.17-18.1-51.51-2.32-1.63-17.91-1.34-37,0-16,1.26-34.28,3.18-49.1,5.49-12.9,2-23.21,4.24-27,6.36C508.35,463.26,510.76,498.59,510.76,498.59Z"/><path fill="#de9b88" d="M726.17,422.72c-2.4,77.44,45.73,162,55.36,178.32s-84.24,33.62-122.75,8.15c43.33,13.24,99.89-6.11,101.09-11.21S705.72,519.52,726.17,422.72Z"/><path fill="#4b5774" d="M539.64,473.27a36.3,36.3,0,0,0,18.49,31.67,314.52,314.52,0,0,0,34.75.68,36.37,36.37,0,0,0,4.82-61.72c-16,1.26-34.28,3.18-49.1,5.49A36.42,36.42,0,0,0,539.64,473.27Z"/><path fill="#fff" d="M760,493.68c6.84.29,13.39.39,19.74.39h2.7c15,0,28.3-.78,40-1.83,32.44-2.8,51.41-8,51.41-8s-6.45-46-15.89-47.94c-4.23-.87-22.24-1.64-41.49-1.54-12.13.1-24.65.48-34.56,1.44-9.25.87-16.18,2.12-18.2,4.05C756.16,447.47,760,493.68,760,493.68Z"/><path fill="#434752" d="M693.34,430.41c-70.81-13-203.92-11.78-203.92-11.78s13.89-52,29.88-64,168.86-5.57,168.86-5.57S697.33,407.79,693.34,430.41Z"/><path fill="#434752" d="M727.29,281.51s26,63.56,34.82,78.32c64.11-26.42,171-37.31,169.83-40.71s-18-40.86-35.4-52.61S727.29,281.51,727.29,281.51Z"/><path fill="#de9b88" d="M777.92,687.48C678,701.92,556.49,650.17,556.49,650.17S675.63,752.46,777.92,687.48Z"/><path fill="#4b5774" d="M768.3,466.05a38.66,38.66,0,0,0,11.45,28h2.7c15,0,28.4-.87,40-2a39.11,39.11,0,0,0,9.53-26c0-13.29-6.16-24.93-15.5-31.29-12.13.1-24.65.48-34.56,1.44C773.69,442.75,768.3,453.63,768.3,466.05Z"/><path fill="#64413f" d="M637.52,437.17v9.62S527.61,451.61,514,467.65C509.16,438.77,637.52,437.17,637.52,437.17Z"/><path fill="#64413f" d="M858,436.3c-42.34-5.15-96.95,6.48-96.95,6.48l-1.6-11.23S856.55,416.31,858,436.3Z"/><path fill="#f8c5a5" d="M386.8,574c-48.63-62.2-132.31-72.37-123.27,1.13s149.7,204.93,148.15,112C410.55,619.28,386.8,574,386.8,574Z"/><path fill="#de9b88" d="M298.59,580.83c22.62-52,93.87,46.36,71.25,89.34C367.58,626.06,325.73,563.86,298.59,580.83Z"/><path fill="#625756" d="M438.82,1028.76s-88.66,40-87.08,56.65,50.44,195.75,62.65,220.17S504,1330,504,1330s-36.63,65.13-40.71,97.7S687.14,1619,687.14,1619,508,1387,438.82,1028.76Z"/></g></g></svg>