<svg xmlns="http://www.w3.org/2000/svg" viewBox="0 0 1014.8 1777.71"><defs><radialGradient id="a" cx="-123.24" cy="1001.54" r="160.41" gradientTransform="translate(592.66)" gradientUnits="userSpaceOnUse"><stop offset="0" stop-color="#e5a691"/><stop offset=".46" stop-color="#efb69c"/><stop offset="1" stop-color="#f8c5a5"/></radialGradient></defs><g data-name="Layer 2"><g data-name="Layer 1"><path fill="#412c2c" d="M368.75,1118.92c57.64-40.71,269.32-16.29,269.32-16.29l2,85.49-271.2-5Z"/><polygon fill="url(#a)" points="489.17 836.11 396.48 1207.8 591.23 1201.8 607.49 806.14 489.17 836.11"/><path fill="#f8c5a5" d="M1012.7,1582.31c.76,7.61,1.43,15.11,2.1,22.53-14,9.79-28.33,19.2-42.87,28.22-3,1.81-6,3.71-9,5.52q-15.82,9.69-32,18.62a953,953,0,0,1-336.16,111.67c-9.78,1.33-19.58,2.48-29.36,3.52-10.36,1.14-20.82,2-31.27,2.66q-34.65,2.71-70,2.66a969,969,0,0,1-97.32-4.84c-18.72-1.9-37.35-4.28-55.69-7.23a954,954,0,0,1-296.81-99.22c5.42-114.9,16.82-282.17,39.54-317.52A85.92,85.92,0,0,1,65,1335.31l3-3c1-.86,1.9-1.81,3-2.85,1.23-1.15,2.66-2.29,3.89-3.33,3.14-2.76,6.37-5.32,9.89-8l2-1.52c1.81-1.43,3.8-2.86,5.8-4.28,2.37-1.71,4.94-3.52,7.6-5.23,2.38-1.61,4.76-3.23,7.23-4.84,23.38-15,51.79-30.13,81.92-44.48,3.89-1.9,7.79-3.81,11.69-5.61s8-3.61,11.88-5.42c4.08-1.9,8-3.61,12-5.41s8-3.52,12-5.33c2.28-1,4.65-2,6.94-3,3.23-1.42,6.55-2.85,9.88-4.18,19.67-8.36,39.15-16.35,57.6-23.67,10.73-4.18,21-8.17,30.88-11.87,8.94-3.43,17.39-6.66,25.38-9.6l1.42-.57c5.13-1.9,10.08-3.8,14.64-5.42q12.82-4.85,22.52-8.27c10.36-3.8,17.68-6.46,21-7.7l153.29,2.66h.29c1.14.29,5.32,1.14,12,2.57s15.4,3.52,26.23,6c1.91.38,3.8.95,5.8,1.33,1.81.47,3.71.85,5.61,1.33,3,.76,6.27,1.52,9.6,2.28,6.08,1.52,12.54,3,19.38,4.75v.1c5.33,1.23,10.84,2.66,16.45,4.18,9.22,2.47,18.81,5,28.6,7.79.48.1.76.19,1.14.29q8.26,2.41,16.83,4.84c5.51,1.52,11,3.14,16.72,4.85a7.85,7.85,0,0,0,1.62.47c5.42,1.62,10.83,3.33,16.35,5,43.9,13.78,88.66,30,124.88,48,4.27,2.09,8.45,4.27,12.45,6.46,2.75,1.42,5.51,3,8.26,4.56,2.1,1.24,4.19,2.38,6.28,3.71,4.08,2.47,8.07,4.94,11.78,7.6,1.81,1.24,3.62,2.57,5.42,3.9,1.62,1.23,3.23,2.47,4.85,3.61a126.66,126.66,0,0,1,13.21,12.07,55.27,55.27,0,0,1,4.08,4.94,46.26,46.26,0,0,1,3,4.18c1.33,2,2.66,4,3.9,6.18q1.42,2.43,2.85,5.13c1.14,2,2.19,4.18,3.23,6.37,1.33,2.85,2.67,5.8,4,8.84,1.52,3.8,3.14,7.89,4.66,12.07,1.14,3,2.19,6.27,3.33,9.5,1.81,5.51,3.51,11.31,5.23,17.3s3.42,12.35,4.94,18.82c.85,3.23,1.61,6.56,2.37,9.88s1.53,6.75,2.29,10.17c2.27,10.26,4.37,20.91,6.27,31.84.66,3.61,1.33,7.22,2,10.93,1.24,7.41,2.47,14.92,3.62,22.43,1.61,10.55,3.13,21.1,4.56,31.74C1007.67,1534.32,1010.42,1558.65,1012.7,1582.31Z"/><path fill="#f6b07b" d="M607.55,1199.69l-1,46.09-11.79,523.09c-9.78,1.33-19.58,2.48-29.36,3.52-10.36,1.14-20.82,2-31.27,2.66q-34.65,2.71-70,2.66a969,969,0,0,1-97.32-4.84c-18.72-1.9-37.35-4.28-55.69-7.23,8-112.33,24.33-329.49,33.93-456.37,4.37-59.21,7.41-98.75,7.41-98.75l12.73-10.64,3.52-3c0,8,2.29,14.35,6.46,19.48,24.05,29.94,110.92,15.21,171.36.39h.09c29.37-7.23,52.47-14.36,59-16.45,0,0,.1,0,.1-.09C606.89,1199.88,607.55,1199.69,607.55,1199.69Z"/><path fill="#5f3a30" d="M145.86,994.26c-89-143.41,702.21-123.63,630.51-9.89,106.32-133.52,2.47-412.93,2.47-412.93S148.33,709.91,140.91,712.38,44.48,920.08,145.86,994.26Z"/><path fill="#f8c5a5" d="M201.08,374.46c-28.46,111.93-1.65,161.54-11.54,272s4.94,202.75,46.15,270.33S342.84,1053.6,433.5,1053.6s196.16-98.9,252.21-224.18,61-242.32,65.93-329.68-9.89-253.86-100.55-314.85C569,129.68,275.26,82.69,201.08,374.46Z"/><path fill="#5f3a30" d="M588.45,282.15C412.9,225.28,291.74,277.2,257.12,331.6s-69.23-59.34,39.56-131,170.61-94,215.12-76.65S588.45,282.15,588.45,282.15Z"/><path fill="#804e42" d="M430.31,488.58c0,4.94,1.65,23.07,1.65,23.07s178-16.48,192.86-16.48S651.19,510,651.19,510s-8.24-28-23.07-34.61S455,495.17,430.31,488.58Z"/><path fill="#804e42" d="M377.46,510.54l-4.95,23.08S220.86,499,209.32,502.3s-24.73,18.13-24.73,18.13,6.6-28,21.43-36.27S377.46,510.54,377.46,510.54Z"/><path fill="#614343" d="M454.52,662.93c58.72,31.52,160.1-8.66,172.46-19.16-18.54-72.33-70.47-81-105.7-77.89S454.52,608.53,454.52,662.93Z"/><path fill="#de9b88" d="M389,560.73c-6.59,87.36-18.13,135.17-44.5,187.92-9.89,19.78,30.29,33,50.07,37.91C368,775.43,358.09,761.83,356.85,755S393.94,699,389,560.73Z"/><path fill="#fff" d="M454.52,662.93c58.72,31.52,146.5,0,158.86-10.51-13-61.81-56.25-77.88-91.48-74.79S454.52,608.53,454.52,662.93Z"/><path fill="#4c5971" d="M575.47,627.9a43.27,43.27,0,1,1-43.27-43.27A43.27,43.27,0,0,1,575.47,627.9Z"/><path fill="#614343" d="M221.45,621.49,211,604.2s9.38-64.54,66.76-60.78C328,546.72,355.2,592.05,351.9,653,313,579.48,221.45,621.49,221.45,621.49Z"/><path fill="#fff" d="M351.9,653A148,148,0,0,1,337,658.13a130.61,130.61,0,0,1-16.52,3.56c-51.62,7.76-91.73-18-99-40.2,15.48-71.71,61.22-79.72,92.77-51.93,1.44,1.34,2.87,2.62,4.25,4,.55.49,1.09,1,1.59,1.58,21.12,21.81,29.17,49.15,31.3,66.66.25,2,.4,4,.49,5.69C352,649.58,352,651.46,351.9,653Z"/><path fill="#de9b88" d="M351.9,841.57c34.62,40.8,137.85,14.84,182.36-37.7C507.06,823,415.57,853.94,351.9,841.57Z"/><path fill="#4c5971" d="M351.36,641.81a43.27,43.27,0,1,1-35.31-68.29c.79,0,1.63,0,2.42.05.55.49,1.09,1,1.59,1.58C341.18,597,349.23,624.3,351.36,641.81Z"/><path fill="#804e42" d="M588.45,282.15C511.8,104.12,286.79,153.57,267,346.44s39.56,244.78-19.78,346.16S71.68,838.48,168.11,1014C42,1016.51-39.59,954.7,19.75,853.32s106.32-183,44.51-304.13-73-248.82-2.47-328.86C244.76,12.64,442.57-9.62,556.31,2.74s128.57,81.6,128.57,136C818.4,215.39,917.3,304.4,907.42,408.25s-89,225-22.26,321.44,118.69,247.26-131,286.82c51.93-128.58,24.73-183-12.36-200.28s-42-34.62-14.83-121.16S717,497.26,647.79,455.23,588.45,282.15,588.45,282.15Z"/><path fill="#f8c5a5" d="M705.49,728.87c62.64-110.45,148.35-59.35,131.87,0S683.61,894,685.71,822.82C687.35,766.78,705.49,728.87,705.49,728.87Z"/><path fill="#de9b88" d="M796.15,700.39c-5.25-2.47-11.3-1.72-16.34.14-10.35,3.7-18.76,10.57-26.34,17.88a161.72,161.72,0,0,0-20.37,24.18,107.62,107.62,0,0,0-14.3,28.35l-1.88,5.85,5.4-2.89h0c6.4-3.66,13.11-6.91,20.08-8.59,3.45-.74,7.13-1,10,.4s4.14,4.7,4,8.2c-.31,7.11-3.88,14.08-8.24,20A44.3,44.3,0,0,1,731,808a34.63,34.63,0,0,0,10.63-4.51,51.89,51.89,0,0,0,9-7.59,43.34,43.34,0,0,0,6.9-9.76,32,32,0,0,0,3.85-12,16.93,16.93,0,0,0-1.07-7.18,11.88,11.88,0,0,0-5.4-6c-4.86-2.49-9.56-2.1-13.57-1.21a58.86,58.86,0,0,0-15.06,6,167.61,167.61,0,0,1,11.39-20,156.37,156.37,0,0,1,19.38-23.62,111.58,111.58,0,0,1,11.44-10,58.32,58.32,0,0,1,12.72-7.84c4.49-1.86,9.42-3.16,14-1.6s8,5.77,10,10.56C804,708.3,801.42,702.89,796.15,700.39Z"/><path fill="#614343" d="M1012.7,1582.31c.76,7.61,1.43,15.11,2.1,22.53-14,9.79-28.33,19.2-42.87,28.22-3,1.81-6,3.71-9,5.52q-15.82,9.69-32,18.62a953,953,0,0,1-336.16,111.67c-9.78,1.33-19.58,2.48-29.36,3.52-10.36,1.14-20.82,2-31.27,2.66-.47-73.94-2.09-316.38.19-383.38,1.9-53.61,36.78-137.81,71.37-191.32,0,0,.1,0,.1-.09,2.85-4.47,5.79-8.65,8.65-12.64q5.13-7.27,10.26-13.4c1.81.47,3.71.85,5.61,1.33,3,.76,6.27,1.52,9.6,2.28,6.08,1.52,12.54,3,19.38,4.75v.1c5.33,1.23,10.84,2.66,16.45,4.18,9.22,2.47,18.81,5,28.6,7.79.48.1.76.19,1.14.29q8.26,2.41,16.83,4.84c5.51,1.52,11,3.14,16.72,4.85a7.85,7.85,0,0,0,1.62.47c5.42,1.62,10.83,3.33,16.35,5,43.9,13.78,88.66,30,124.88,48,4.27,2.09,8.45,4.27,12.45,6.46,2.75,1.42,5.51,3,8.26,4.56,2.1,1.24,4.19,2.38,6.28,3.71,4.08,2.47,8.07,4.94,11.78,7.6,1.81,1.24,3.62,2.57,5.42,3.9,1.62,1.23,3.23,2.47,4.85,3.61a126.66,126.66,0,0,1,13.21,12.07,55.27,55.27,0,0,1,4.08,4.94,46.26,46.26,0,0,1,3,4.18c1.33,2,2.66,4,3.9,6.18q1.42,2.43,2.85,5.13c1.14,2,2.19,4.18,3.23,6.37,1.33,2.85,2.67,5.8,4,8.84,1.52,3.8,3.14,7.89,4.66,12.07,1.14,3,2.19,6.27,3.33,9.5,1.81,5.51,3.51,11.31,5.23,17.3s3.42,12.35,4.94,18.82c.85,3.23,1.61,6.56,2.37,9.88s1.53,6.75,2.29,10.17c2.27,10.26,4.37,20.91,6.27,31.84.66,3.61,1.33,7.22,2,10.93,1.24,7.41,2.47,14.92,3.62,22.43,1.61,10.55,3.13,21.1,4.56,31.74C1007.67,1534.32,1010.42,1558.65,1012.7,1582.31Z"/><path fill="#614343" d="M366.82,1772.87c-18.72-1.9-37.35-4.28-55.69-7.23a954,954,0,0,1-296.81-99.22c5.42-114.9,16.82-282.17,39.54-317.52A85.92,85.92,0,0,1,65,1335.31l3-3c1-.86,1.9-1.81,3-2.85,1.23-1.15,2.66-2.29,3.89-3.33,3.14-2.76,6.37-5.32,9.89-8l2-1.52c1.81-1.43,3.8-2.86,5.8-4.28,2.37-1.71,4.94-3.52,7.6-5.23,2.38-1.61,4.76-3.23,7.23-4.84,23.38-15,51.79-30.13,81.92-44.48,3.89-1.9,7.79-3.81,11.69-5.61s8-3.61,11.88-5.42c4.08-1.9,8-3.61,12-5.41s8-3.52,12-5.33c2.28-1,4.65-2,6.94-3,3.23-1.42,6.55-2.85,9.88-4.18,19.67-8.36,39.15-16.35,57.6-23.67,10.73-4.18,21-8.17,30.88-11.87,8.94-3.43,17.39-6.66,25.38-9.6q-1.14,7.55-2.29,16.25c-4.65,33.17-10.07,75.27-10.07,89.33,0,23.67,12.74,72.81,13.5,75.85a.29.29,0,0,1,.09.19C373,1423.79,368.81,1674.31,366.82,1772.87Z"/><path fill="#412c2c" d="M368.75,1365.2c-11.57-91.59,14.78-187.57,14.78-187.57s3.29-70.05-14.78-58.71c-23.78,14.92-34,116-31.92,152.65S368.75,1365.2,368.75,1365.2Z"/><path fill="#6d4c4c" d="M659.27,1182.67c-85.73,82.43-125,209-125,209S522,1289.89,532.2,1249.18s89.59-144.51,105.87-146.55S659.27,1182.67,659.27,1182.67Z"/></g></g></svg>