<svg xmlns="http://www.w3.org/2000/svg" viewBox="0 0 1138.76 1778.39"><defs><radialGradient id="a" cx="118.57" cy="1002.19" r="156.69" gradientTransform="matrix(1.45 0 0 1 333.96 0)" gradientUnits="userSpaceOnUse"><stop offset="0" stop-color="#e5a691"/><stop offset=".46" stop-color="#efb69c"/><stop offset="1" stop-color="#f8c5a5"/></radialGradient></defs><g data-name="Layer 2"><g data-name="Layer 1"><polygon fill="url(#a)" points="483.94 836.76 408.42 1208.44 503.09 1182.52 691.35 1202.45 655.83 806.78 483.94 836.76"/><path fill="#9ddcd8" d="M1138.76,1565a962,962,0,0,1-137.91,92.85,953.07,953.07,0,0,1-249.66,95.89c-15.87,3.71-31.93,6.94-48.19,9.79a969.5,969.5,0,0,1-474.24-34.5V1729c-16.44-5.42-32.7-11.31-48.66-17.58A966.48,966.48,0,0,1,0,1617c7-108.44,20-237,42.39-267.44A86.28,86.28,0,0,1,55,1336l3.42-3c1.14-.85,2.28-1.8,3.52-2.85,1.42-1.14,2.94-2.28,4.46-3.42,3.52-2.66,7.23-5.23,11.22-8l2.28-1.42c2.18-1.43,4.46-2.85,6.65-4.28,2.76-1.71,5.7-3.51,8.75-5.22,2.75-1.62,5.41-3.24,8.36-4.85,26.8-15,59.21-30.13,93.8-44.48,4.47-1.9,8.94-3.8,13.4-5.61l13.5-5.41c4.75-1.9,9.31-3.71,13.78-5.42,1.14-.48,2.18-1,3.32-1.33,3.42-1.33,6.94-2.66,10.36-4,2.67-1.05,5.42-2,8.08-3,.1,0,.1-.1.19-.1,3.71-1.43,7.22-2.76,11-4.09,12.26-4.56,24.52-9,36.49-13.3,2.95-1.05,6-2.09,8.94-3.14,7-2.47,13.87-4.94,20.52-7.22.29-.1.57-.1.86-.19,22.24-7.6,42.86-14.54,61.11-20.53.85-.28,1.62-.47,2.47-.76a9.27,9.27,0,0,1,1.23-.38c.19-.09.29-.09.48-.19,3.8-1.24,7.32-2.38,10.84-3.61h.09c3.71-1.14,7.22-2.28,10.65-3.42,23.09-7.42,37,1.71,42.66-.29l35.64,6.08L645.5,1165s16.54,2.94,43.25,8.36a3.69,3.69,0,0,1,.85.19c2.1.38,4.37.86,6.65,1.33.38.1.67.1,1.14.19,10.65,2.19,22.62,4.66,35.55,7.51,6.94,1.52,14.26,3.23,21.76,4.94q14,3.29,28.8,6.84c1.33.29,2.66.58,4,1h.1c.47.1.76.19,1.23.29,3,.76,6.18,1.52,9.32,2.38s6.65,1.61,10,2.47q9.4,2.28,19.1,4.84a11.47,11.47,0,0,0,1.9.48l5.13,1.43c4.47,1.23,9,2.47,13.59,3.61,10.17,2.75,20.34,5.6,30.32,8.65,40.2,11.78,79.64,25,112.71,39.34,5,2.09,9.7,4.18,14.36,6.46,3.13,1.43,6.27,3,9.31,4.57,2.47,1.14,4.94,2.37,7.22,3.7,4.75,2.47,9.32,4.94,13.59,7.61,2.1,1.23,4.09,2.56,6.18,3.89,1.81,1.24,3.71,2.38,5.51,3.61a130.49,130.49,0,0,1,15.11,12.07C1102.17,1338.36,1125.45,1455.92,1138.76,1565Z"/><path fill="#f8c5a5" d="M856.52,357.44c-2.31,84.05-45.44,241-45.44,241S786.82,673,760,751.78c-25.71,75.67-53.72,155.2-64.89,176.38-22.72,43.13-159.14,109.08-193.23,125.06s-179.64-2.31-202.36-27.34C279.84,1004.31,215,796.26,211.67,698c-.57-16.08.49-29.18,3.66-38.13,22.73-63.73,30-143.64,27.73-175.51C241.23,458.82,242,379.4,270.6,290.25A166.85,166.85,0,0,1,377.07,182.8c33.12-10.88,79.05-22,142-30.61,117.07-16,230.58,46,230.58,46S858.83,273.3,856.52,357.44Z"/><path fill="#4d3a2c" d="M294.63,243.09c145-65.2,409.74-9.84,457.88,9.42-79.43,67.39,50.54,48.13,81.83,96.27S800.65,409,783.8,452.27s21.66,69.8,21.66,69.8-33.7,69.8-86.65,154c-33.44,53.21-234.11,78.78-371.45,76.22C267.24,750.83,214,727.07,214,727.07s-31.08,23.81-24.71,79c7.22,62.58,26.34,60.2,36.1,115.53,7.22,40.92-33.7,84.24,21.66,144.41,29,31.54,81.84,16.85,115.53,50.55s96.27,21.66,130-7.22,86.65-33.7,149.22-40.92,81.84-50.55,84.25-120.34,48.13-65,55.35-117.94-2.4-67.39,0-120.34,15.25-52.95,48.94-55.36,47.34,14.44,88.25-36.1-7.22-91.46,9.63-137.19,69.8-33.7,67.39-101.09-65-52.95-50.54-127.56-9.63-98.68-89.06-105.9S831.94,50.33,786.21,11.82s-209.4,31.29-300.86,9.63-154,36.1-173.29,108.31-55.36,69.8-91.46,108.3,32.23,122.61,32.23,122.61S273.16,267.39,294.63,243.09Z"/><path fill="#fff" d="M635.38,607.57A358.32,358.32,0,0,1,588,613.92a314.68,314.68,0,0,1-34.75.67c-19.93-.67-41-3.46-59.89-10.2,0,0,12-47.18,18.1-51.51,2.31-1.64,17.91-1.35,37,0,16,1.25,34.27,3.18,49.1,5.49,12.9,2,23.2,4.23,27,6.35C637.78,572.23,635.38,607.57,635.38,607.57Z"/><path fill="#de9b88" d="M420,531.7c2.41,77.44-45.73,162-55.36,178.31s84.25,33.63,122.75,8.16C444,731.41,387.47,712.05,386.27,707S440.42,628.5,420,531.7Z"/><path fill="#765b46" d="M606.49,582.25A36.31,36.31,0,0,1,588,613.92a314.68,314.68,0,0,1-34.75.67,36.36,36.36,0,0,1-4.82-61.71c16,1.25,34.27,3.18,49.1,5.49A36.45,36.45,0,0,1,606.49,582.25Z"/><path fill="#fff" d="M386.13,602.65c-6.84.29-13.39.39-19.74.39h-2.7c-15,0-28.3-.77-40.05-1.83-32.44-2.79-51.41-8-51.41-8s6.45-46,15.89-48c4.23-.86,22.24-1.63,41.49-1.53,12.13.09,24.65.48,34.56,1.44,9.25.87,16.18,2.12,18.2,4C390,556.44,386.13,602.65,386.13,602.65Z"/><path fill="#4d3a2c" d="M477.64,430.49c66.29,28.1,176.77,102.36,176.77,102.36s17-51.06,10.24-69.86S526.7,365.44,526.7,365.44,486.75,409.42,477.64,430.49Z"/><path fill="#4d3a2c" d="M368.24,356.86s19.43,65.87,21.78,82.9c-66.56,19.46-156.81,77.8-158,74.39S220.53,471,226.76,451,368.24,356.86,368.24,356.86Z"/><path fill="#765b46" d="M377.84,575a38.64,38.64,0,0,1-11.45,28h-2.7c-15,0-28.4-.87-40.05-2a39.14,39.14,0,0,1-9.53-26c0-13.28,6.16-24.93,15.5-31.28,12.13.09,24.65.48,34.56,1.44C372.45,551.72,377.84,562.6,377.84,575Z"/><path fill="#64413f" d="M508.62,546.14v9.63s109.91,4.81,123.55,20.86C637,547.75,508.62,546.14,508.62,546.14Z"/><path fill="#64413f" d="M288.12,545.27c42.34-5.15,96.94,6.49,96.94,6.49l1.61-11.23S289.59,525.28,288.12,545.27Z"/><path fill="#f8c5a5" d="M759.34,683c48.63-62.2,132.31-72.38,123.26,1.13s-149.69,204.92-148.14,112C735.59,728.25,759.34,683,759.34,683Z"/><path fill="#de9b88" d="M847.55,689.8c-22.62-52-93.87,46.37-71.25,89.34C778.56,735,820.41,672.84,847.55,689.8Z"/><polygon fill="#bbf1ed" points="503.09 1182.52 570.26 1272.08 733.1 1182.52 704.6 1137.74 503.09 1182.52"/><polygon fill="#bbf1ed" points="503.09 1182.52 452.21 1259.86 397.25 1182.52 418.62 1149.95 503.09 1182.52"/><path fill="#915452" d="M834.25,1207.21C801,1308.42,780.55,1436.63,768,1547.63c-1.24,11.22-2.47,22.34-3.52,33.17-7.32,72.14-11.31,134.29-13.3,173-15.87,3.71-31.93,6.94-48.19,9.79.1-37.73,1.62-105.3,9.32-185.7,1-11.79,2.27-23.95,3.7-36.21,12.36-109.39,36.31-236.46,82.12-343.66,3.23.85,6.65,1.61,10,2.47q9.4,2.28,19.1,4.84a11.47,11.47,0,0,0,1.9.48Z"/><path fill="#915452" d="M307.64,1216.14c-31.36,98.93-51,221.82-63.1,328.93-1.43,12.35-2.66,24.52-3.9,36.4-5.89,58-9.6,109.48-11.88,147.5-16.44-5.42-32.7-11.31-48.66-17.58,1.14-36.41,3.52-82.4,8.36-133.73,1-10.83,2.19-22,3.42-33.26,10.93-98.17,31.18-210.89,68.24-310.87,3.71-1.43,7.22-2.76,11-4.09C283.41,1224.88,295.67,1220.42,307.64,1216.14Z"/><polygon fill="#f8c887" points="708.67 1540.75 704.6 1577.39 775.16 1581.46 779.23 1548.89 708.67 1540.75"/><polygon fill="#f8c887" points="249.65 1545.21 248.97 1582.07 178.47 1577.01 178.63 1544.19 249.65 1545.21"/><path fill="#80212e" d="M622.16,752.36c-.24.67-2,4.15-4.81,9.72a549,549,0,0,1-35,57.87c-26.82,38.28-64.1,78.62-102.2,78.62-5.15,0-10.05-2.16-14.79-5.89-27-21-46.49-91.58-46.49-91.58,2.32,0,4.73-.08,7.06-.16C533.41,798.11,618.68,754.11,622.16,752.36Z"/><path fill="#ec7474" d="M582.31,820c-26.82,38.28-64.1,78.62-102.2,78.62-5.15,0-10.05-2.16-14.79-5.89C505.1,843.44,554,826,582.31,820Z"/><path fill="#fff" d="M622.16,752.36c-.24.67-2,4.15-4.81,9.72-47.57,48.48-155,88.59-191.46,38.86C533.41,798.11,618.68,754.11,622.16,752.36Z"/><path fill="#f8c5a5" d="M493.37,604.39c35.16-7.06,127.74-11,142,3.18S512.15,643,493.37,604.39Z"/><path fill="#f8c5a5" d="M386.13,602.65c-34.68-24.66-113.9-9.43-113.9-9.43s9,25.48,32.41,35.66S386.13,602.65,386.13,602.65Z"/></g></g></svg>